<?xml version="1.0" encoding="UTF-8" standalone="no"?>
<!-- Created with Inkscape (http://www.inkscape.org/) -->

<svg
   width="1500"
   height="500"
   viewBox="0 0 1500 500"
   version="1.1"
   id="svg1"
   xml:space="preserve"
   inkscape:version="1.3 (0e150ed6c4, 2023-07-21)"
   sodipodi:docname="CaliNetwork_path.svg"
   inkscape:export-filename="CaliNetwork.png"
   inkscape:export-xdpi="96"
   inkscape:export-ydpi="96"
   xmlns:inkscape="http://www.inkscape.org/namespaces/inkscape"
   xmlns:sodipodi="http://sodipodi.sourceforge.net/DTD/sodipodi-0.dtd"
   xmlns="http://www.w3.org/2000/svg"
   xmlns:svg="http://www.w3.org/2000/svg"><sodipodi:namedview
     id="namedview1"
     pagecolor="#ffffff"
     bordercolor="#000000"
     borderopacity="0.25"
     inkscape:showpageshadow="2"
     inkscape:pageopacity="0.0"
     inkscape:pagecheckerboard="0"
     inkscape:deskcolor="#d1d1d1"
     inkscape:document-units="px"
     inkscape:zoom="0.48271822"
     inkscape:cx="519.97209"
     inkscape:cy="125.33192"
     inkscape:window-width="1920"
     inkscape:window-height="1006"
     inkscape:window-x="0"
     inkscape:window-y="0"
     inkscape:window-maximized="1"
     inkscape:current-layer="layer1"
     inkscape:export-bgcolor="#ffffffff" /><defs
     id="defs1"><rect
       x="501.48141"
       y="361.51881"
       width="442.06042"
       height="138.81351"
       id="rect8" /><rect
       x="582.12822"
       y="269.17877"
       width="1038.7708"
       height="364.96608"
       id="rect4" /><rect
       x="1249.5289"
       y="58.261871"
       width="229.28238"
       height="153.10478"
       id="rect6" /><rect
       x="519.45417"
       y="239.22551"
       width="868.81545"
       height="153.94436"
       id="rect5" /><rect
       x="461.66781"
       y="135.29341"
       width="964.08791"
       height="306.10346"
       id="rect3" /><rect
       x="609.82704"
       y="110.76736"
       width="985.50224"
       height="327.03209"
       id="rect2" /><rect
       x="597.00394"
       y="78.054428"
       width="702.43835"
       height="142.95387"
       id="rect1" /><inkscape:path-effect
       effect="copy_rotate"
       starting_point="477.65871,122.02815"
       origin="400.6874,122.02815"
       id="path-effect2"
       is_visible="true"
       lpeversion="1.2"
       lpesatellites=""
       method="normal"
       num_copies="6"
       starting_angle="0"
       rotation_angle="60"
       gap="-0.01"
       copies_to_360="true"
       mirror_copies="false"
       split_items="false"
       link_styles="false" /><inkscape:path-effect
       effect="bspline"
       id="path-effect1"
       is_visible="true"
       lpeversion="1.3"
       weight="33.333333"
       steps="2"
       helper_size="0"
       apply_no_weight="true"
       apply_with_weight="true"
       only_selected="false"
       uniform="false" /><inkscape:path-effect
       effect="copy_rotate"
       starting_point="108.16864,74.215701"
       origin="74.716454,74.215701"
       id="path-effect4"
       is_visible="true"
       lpeversion="1.2"
       lpesatellites=""
       method="normal"
       num_copies="6"
       starting_angle="0"
       rotation_angle="60"
       gap="-0.01"
       copies_to_360="true"
       mirror_copies="false"
       split_items="true"
       link_styles="false" /><inkscape:path-effect
       effect="bspline"
       id="path-effect3"
       is_visible="true"
       lpeversion="1.3"
       weight="33.333333"
       steps="2"
       helper_size="0"
       apply_no_weight="true"
       apply_with_weight="true"
       only_selected="false"
       uniform="false" /><rect
       x="461.66781"
       y="135.29341"
       width="964.08791"
       height="306.10346"
       id="rect7" /></defs><g
     inkscape:label="Layer 1"
     inkscape:groupmode="layer"
     id="layer1"><g
       id="g1"><g
         inkscape:label="Layer 1"
         id="layer1-5"
         transform="matrix(0.87302184,0,0,0.87302184,0.44137785,26.506409)"><path
           style="fill:#c9c9ff;fill-opacity:1"
           d="m 217.15282,93.005362 c -4.35255,4.352546 -8.7051,8.705098 -10.21581,14.466108 -1.51071,5.76102 -0.17964,12.93023 1.15146,20.09958 29.20007,10.30769 58.39956,20.61518 83.75351,33.55824 25.35394,12.94306 46.86033,28.52067 68.36714,44.09859 C 321.83529,143.25981 283.46224,81.292989 259.61904,62.588859 c -23.8432,-18.70413 -33.15461,5.855937 -42.46622,30.416503 z m 66.63282,173.456998 c 1.59314,5.9457 3.18628,11.89139 7.42011,16.08021 4.23383,4.18883 11.10809,6.62069 17.98248,9.0526 23.52675,-20.13416 47.05304,-40.26792 70.93904,-55.75355 23.88599,-15.48563 48.12979,-26.3219 72.37407,-37.15839 -72.85284,2.24868 -145.7042,4.4973 -173.82405,15.79405 -28.11986,11.29676 -11.50592,31.64071 5.10835,51.98508 z m 183.53458,29.02279 c 5.94569,1.59315 11.89138,3.1863 17.63593,1.6141 5.74454,-1.57219 11.28772,-6.30954 16.83101,-11.04698 -5.67332,-30.44185 -11.34652,-60.8831 -12.81447,-89.31179 -1.46795,-28.42869 1.26946,-54.84257 4.00693,-81.25698 -34.47901,64.21675 -68.95733,128.43219 -73.23398,158.43308 -4.27665,30.00088 21.6487,25.78477 47.57458,21.56857 z M 584.22198,151.05094 c 4.35255,-4.35255 8.7051,-8.7051 10.21581,-14.46611 1.51071,-5.76102 0.17964,-12.93023 -1.15146,-20.09958 C 564.08626,106.17756 534.88677,95.870074 509.53282,82.927012 484.17888,69.983951 462.67249,54.40634 441.16568,38.82842 c 38.37383,61.96807 76.74688,123.93489 100.59008,142.63902 23.8432,18.70413 33.15461,-5.85594 42.46622,-30.4165 z M 517.58916,-22.406065 c -1.59314,-5.945692 -3.18628,-11.891388 -7.42011,-16.08021 -4.23383,-4.188822 -11.10809,-6.620683 -17.98248,-9.052591 C 468.65982,-27.404709 445.13353,-7.2709502 421.24753,8.2146789 397.36154,23.700308 373.11774,34.53658 348.87346,45.373066 421.7263,43.124394 494.57766,40.875767 522.69751,29.579015 550.81737,18.282264 534.20343,-2.0616937 517.58916,-22.406065 Z M 334.05458,-51.428853 c -5.94569,-1.593146 -11.89138,-3.186293 -17.63593,-1.614098 -5.74454,1.572195 -11.28772,6.309543 -16.83101,11.046985 5.67332,30.441847 11.34652,60.883092 12.81447,89.311782 1.46795,28.428691 -1.26946,54.842574 -4.00693,81.256984 34.47901,-64.216749 68.95733,-128.43219432 73.23398,-158.433076 4.27665,-30.000882 -21.6487,-25.784772 -47.57458,-21.568577 z"
           id="path1"
           transform="matrix(1.3193312,0,0,1.3193312,-272.63939,95.004454)"
           sodipodi:nodetypes="ccccccc" /><g
           id="g8"
           transform="matrix(1.3060569,0.61245313,-0.61245313,1.3060569,252.71036,146.54082)"><path
             style="fill:#f5a9b8;fill-opacity:1;stroke-width:0.264583"
             d="m 74.716454,69.83256 c 10.412979,-5.162672 20.82596,-10.325346 31.976806,-8.471384 11.15085,1.853962 23.03909,10.7242 34.92757,19.594616 -7.48412,3.940917 -14.96824,7.881833 -26.11912,6.027884 C 104.35083,85.129726 89.533793,77.481221 74.716454,69.83256 Z"
             id="path3"
             transform="translate(-40.435309,-6.4823672)" /><path
             transform="rotate(-60,48.884905,105.99252)"
             style="fill:#f5a9b8;fill-opacity:1;stroke-width:0.264583"
             id="path4"
             d="m 74.716454,69.83256 c 10.412979,-5.162672 20.82596,-10.325346 31.976806,-8.471384 11.15085,1.853962 23.03909,10.7242 34.92757,19.594616 -7.48412,3.940917 -14.96824,7.881833 -26.11912,6.027884 C 104.35083,85.129726 89.533793,77.481221 74.716454,69.83256 Z" /><path
             transform="rotate(-120,52.627501,82.647186)"
             style="fill:#f5a9b8;fill-opacity:1;stroke-width:0.264583"
             id="path5"
             d="m 74.716454,69.83256 c 10.412979,-5.162672 20.82596,-10.325346 31.976806,-8.471384 11.15085,1.853962 23.03909,10.7242 34.92757,19.594616 -7.48412,3.940917 -14.96824,7.881833 -26.11912,6.027884 C 104.35083,85.129726 89.533793,77.481221 74.716454,69.83256 Z"
             sodipodi:nodetypes="cscsc" /><path
             transform="rotate(180,54.4988,70.974517)"
             style="fill:#f5a9b8;fill-opacity:1;stroke-width:0.264583"
             id="path6"
             d="m 74.716454,69.83256 c 10.412979,-5.162672 20.82596,-10.325346 31.976806,-8.471384 11.15085,1.853962 23.03909,10.7242 34.92757,19.594616 -7.48412,3.940917 -14.96824,7.881833 -26.11912,6.027884 C 104.35083,85.129726 89.533793,77.481221 74.716454,69.83256 Z" /><path
             transform="rotate(120,56.370098,59.301849)"
             style="fill:#f5a9b8;fill-opacity:1;stroke-width:0.264583"
             id="path7"
             d="m 74.716454,69.83256 c 10.412979,-5.162672 20.82596,-10.325346 31.976806,-8.471384 11.15085,1.853962 23.03909,10.7242 34.92757,19.594616 -7.48412,3.940917 -14.96824,7.881833 -26.11912,6.027884 C 104.35083,85.129726 89.533793,77.481221 74.716454,69.83256 Z" /><path
             transform="rotate(60,60.112694,35.956513)"
             style="fill:#f5a9b8;fill-opacity:1;stroke-width:0.264583"
             id="path8"
             d="m 74.716454,69.83256 c 10.412979,-5.162672 20.82596,-10.325346 31.976806,-8.471384 11.15085,1.853962 23.03909,10.7242 34.92757,19.594616 -7.48412,3.940917 -14.96824,7.881833 -26.11912,6.027884 C 104.35083,85.129726 89.533793,77.481221 74.716454,69.83256 Z" /></g></g><g
         id="g5"
         transform="matrix(1.9220444,0,0,1.9220444,-683.29237,-137.28016)"><path
           style="font-size:53.3333px;font-family:Comfortaa;-inkscape-font-specification:'Comfortaa, Normal';white-space:pre;fill:#c9c9ff"
           d="m 485.72129,184.63345 c 4.85333,0 9.43999,-1.28 13.06666,-4.58667 0.42666,-0.48 0.58666,-0.96 0.58666,-1.49333 0,-1.70666 -1.86666,-2.61333 -3.14666,-1.6 -3.09333,2.45333 -6.56,3.73333 -10.50666,3.73333 -9.22666,0 -16.69333,-7.83999 -16.69333,-17.43999 0,-9.38666 7.57333,-17.38665 16.69333,-17.38665 4.32,0 7.46666,1.12 10.23999,3.57333 1.06667,0.85333 2.34667,0.53333 2.61333,-0.32 0.90667,-0.37333 1.17334,-1.76 0.21334,-2.50667 -3.89333,-3.25333 -7.94667,-4.69333 -13.06666,-4.69333 -11.62666,0 -20.74666,9.65333 -20.74666,21.33332 0,11.78666 9.28,21.38666 20.74666,21.38666 z m 33.01326,-29.97332 c -8.48,0 -14.82666,6.4 -14.82666,14.87999 0,8.48 6.18666,14.82666 14.39999,14.82666 4.69333,0 8.64,-2.13333 11.09333,-5.49333 v 3.2 c 0,1.17333 0.85333,2.02666 2.08,2.02666 1.17333,0 2.08,-0.85333 2.08,-2.02666 v -12.53333 c -0.0533,-8.47999 -6.4,-14.87999 -14.82666,-14.87999 z m 0,25.97332 c -6.13333,0 -10.82666,-4.74666 -10.82666,-11.09333 0,-6.34666 4.69333,-11.14666 10.82666,-11.14666 6.13333,0 10.77333,4.8 10.77333,11.14666 0,6.34667 -4.64,11.09333 -10.77333,11.09333 z m 29.11998,3.46666 h 0.69334 c 1.44,0 2.4,-0.85333 2.4,-2.02666 0,-1.22667 -0.69334,-2.02667 -1.76,-2.02667 h -1.33334 c -1.91999,0 -3.30666,-2.13333 -3.30666,-5.17333 v -30.39998 c 0,-1.17333 -0.8,-2.02666 -2.02667,-2.02666 -1.17333,0 -2.02666,0.85333 -2.02666,2.02666 v 30.39998 c 0,5.38667 3.04,9.22666 7.35999,9.22666 z m 11.62664,-34.71997 c 1.65334,0 2.93333,-1.28 2.93333,-2.93334 0,-1.76 -1.38666,-2.87999 -2.87999,-2.87999 -1.54667,0 -2.93333,1.11999 -2.93333,2.87999 0,1.65334 1.27999,2.93334 2.87999,2.93334 z m 0.0533,34.71997 c 1.17333,0 2.02666,-0.85333 2.02666,-2.07999 V 157.0068 c 0,-1.22667 -0.85333,-2.08 -2.02666,-2.08 -1.22667,0 -2.08,0.85333 -2.08,2.08 v 25.01332 c 0,1.22666 0.85333,2.07999 2.08,2.07999 z m 15.0933,0 c 1.17333,0 2.08,-0.90666 2.08,-2.07999 v -32.10665 l 25.54665,33.49331 c 0.32,0.48 0.96,0.69333 1.54666,0.69333 1.17334,0 2.08,-0.90666 2.08,-2.07999 V 144.5268 c 0,-1.17333 -0.90666,-2.07999 -2.08,-2.07999 -1.17333,0 -2.08,0.90666 -2.08,2.07999 v 32.15999 l -25.49331,-33.49332 c -0.42667,-0.48 -1.01334,-0.74666 -1.6,-0.74666 -1.22667,0 -2.08,0.90666 -2.08,2.07999 v 37.49332 c 0,1.17333 0.85333,2.07999 2.08,2.07999 z m 53.81334,-29.43998 c -8.21333,0 -13.97333,6.18667 -13.97333,14.87999 0,8.69333 6.13333,14.82666 14.77333,14.82666 3.30666,0 7.35999,-1.44 9.70666,-3.46666 0.85333,-0.74667 0.8,-1.86667 -0.10667,-2.66667 -0.74666,-0.58666 -1.81333,-0.53333 -2.61333,0.10667 -1.54666,1.33333 -4.42666,2.34666 -6.98666,2.34666 -5.97333,0 -10.29333,-3.99999 -10.87999,-9.81332 h 21.54665 c 1.12,0 1.92,-0.74667 1.92,-1.86667 0,-8.37333 -5.33333,-14.34666 -13.38666,-14.34666 z m 0,3.68 c 5.38666,0 9.01333,3.73333 9.54666,9.11999 h -19.51999 c 0.74667,-5.38666 4.53333,-9.11999 9.97333,-9.11999 z m 33.17332,21.65332 h -1.44 c -3.30666,0 -5.70666,-2.56 -5.70666,-6.18666 V 159.5668 h 6.02666 c 1.12,0 1.86667,-0.74667 1.86667,-1.76 0,-1.06667 -0.74667,-1.81334 -1.86667,-1.81334 h -6.02666 v -8.26666 c 0,-1.22666 -0.85333,-2.08 -2.08,-2.08 -1.17333,0 -2.02666,0.85334 -2.02666,2.08 v 8.26666 h -3.46667 c -1.12,0 -1.86666,0.74667 -1.86666,1.81334 0,1.01333 0.74666,1.76 1.86666,1.76 h 3.46667 v 14.23999 c 0,5.91999 4.10666,10.23999 9.81332,10.29332 h 1.12 c 1.28,0 2.24,-0.85333 2.24,-2.02666 0,-1.22667 -0.8,-2.08 -1.92,-2.08 z m 40.53334,-25.06665 c -0.90666,0 -1.6,0.48 -1.97333,1.54666 l -6.77333,20.69333 -6.13333,-20.63999 c -0.26666,-0.96 -0.96,-1.6 -2.02666,-1.6 -1.06667,0 -1.76,0.64 -2.02667,1.6 l -6.29333,20.74665 -6.82666,-20.79999 c -0.37333,-1.06666 -1.12,-1.54666 -2.02667,-1.54666 -1.44,0 -1.97333,1.06666 -1.54666,2.88 l 8.31999,24.95998 c 0.32,0.8 1.06667,1.33333 1.97334,1.33333 0.85333,0 1.59999,-0.48 1.91999,-1.33333 l 6.4,-21.22665 6.4,21.22665 c 0.21333,0.8 1.06666,1.33333 1.97333,1.33333 0.90666,0 1.65333,-0.53333 1.92,-1.33333 l 8.31999,-24.95998 c 0.58667,-1.54667 0,-2.88 -1.6,-2.88 z m 19.7333,29.43998 c 8.53332,0 14.82665,-6.29333 14.82665,-14.82666 -0.0533,-8.58666 -6.29333,-14.87999 -14.82665,-14.87999 -8.58667,0 -14.82666,6.29333 -14.82666,14.87999 0,8.53333 6.23999,14.82666 14.82666,14.82666 z m 0,-3.73333 c -6.18667,0 -10.82666,-4.69333 -10.82666,-11.09333 0,-6.45333 4.63999,-11.14666 10.82666,-11.14666 6.23999,0 10.77332,4.69333 10.77332,11.14666 0,6.4 -4.53333,11.09333 -10.77332,11.09333 z m 35.99996,-26.02665 c -3.73333,0 -7.04,1.76 -9.12,4.69333 v -2.34667 c 0,-1.28 -0.74666,-2.02666 -2.02666,-2.02666 -1.28,0 -2.02667,0.74666 -2.02667,2.02666 v 25.11999 c 0,1.28 0.74667,2.02666 2.02667,2.02666 1.28,0 2.02666,-0.74666 2.02666,-2.02666 v -15.94666 c 0,-4.96 4.37333,-8.15999 10.34666,-7.62666 1.76,0.10667 3.2,0.42667 3.57334,-1.17333 0.42666,-1.76 -1.49334,-2.72 -4.8,-2.72 z m 33.27999,26.55998 -11.09332,-13.65332 10.66666,-9.65333 c 0.85333,-0.74667 0.90666,-1.76 0.10666,-2.61333 -0.74666,-0.85333 -1.76,-0.85333 -2.61333,-0.10667 l -15.03999,13.59999 v -24.26665 c 0,-1.22666 -0.85333,-2.02666 -2.02667,-2.02666 -1.22666,0 -2.02666,0.8 -2.02666,2.02666 v 37.59998 c 0,1.22667 0.8,2.02666 2.02666,2.02666 1.17334,0 2.02667,-0.79999 2.02667,-2.02666 v -8.37333 l 4,-3.62666 10.98666,13.49332 c 0.69333,0.90667 1.81333,1.01333 2.72,0.26667 0.90666,-0.74667 0.96,-1.81333 0.26666,-2.66667 z"
           id="text3"
           transform="matrix(1.6269968,0,0,1.6269968,-161.02525,-141.28706)"
           aria-label="CaliNetwork" /></g><path
         d="m 611.14223,348.12447 c 12.37333,0 22.10132,-6.912 22.10132,-19.19999 0,-10.66667 -6.74133,-17.49333 -20.99199,-19.54133 -12.03199,-1.62133 -16.12799,-6.4 -16.12799,-12.11733 0,-7.25333 5.88799,-11.17866 14.93332,-11.17866 7.59467,0.0853 11.86133,3.584 14.42133,7.59466 0.93867,1.62134 2.98667,2.304 4.608,1.45067 1.62133,-0.93867 2.048,-2.816 0.93867,-4.608 -3.584,-5.888 -10.41067,-10.75199 -19.88266,-10.75199 -12.544,0 -21.58933,6.57066 -21.58933,17.06666 0,9.64266 7.936,16.81066 21.24799,18.43199 10.92267,1.36533 15.872,6.82666 15.872,13.73866 0,8.27733 -6.48533,12.79999 -15.53066,12.79999 -8.192,0 -14.592,-3.49866 -17.152,-8.53333 -0.768,-1.62133 -2.47466,-2.47466 -4.09599,-2.048 -2.13334,0.512 -2.98667,2.304 -2.13334,4.096 3.584,7.76533 12.45867,12.8 23.38133,12.8 z m 56.40536,-0.42667 c 13.65333,0 23.72266,-10.06933 23.72266,-23.72266 -0.0853,-13.73866 -10.06933,-23.80799 -23.72266,-23.80799 -13.73866,0 -23.72265,10.06933 -23.72265,23.80799 0,13.65333 9.98399,23.72266 23.72265,23.72266 z m 0,-5.97333 c -9.89866,0 -17.32266,-7.50933 -17.32266,-17.74933 0,-10.32532 7.424,-17.83465 17.32266,-17.83465 9.984,0 17.23733,7.50933 17.23733,17.83465 0,10.24 -7.25333,17.74933 -17.23733,17.74933 z m 46.59199,5.54666 h 1.10933 c 2.304,0 3.84,-1.36533 3.84,-3.24266 0,-1.96267 -1.10933,-3.24267 -2.816,-3.24267 h -2.13333 c -3.072,0 -5.29067,-3.41333 -5.29067,-8.27733 v -48.63998 c 0,-1.87733 -1.28,-3.24266 -3.24266,-3.24266 -1.87734,0 -3.24267,1.36533 -3.24267,3.24266 v 48.63998 c 0,8.61867 4.864,14.76266 11.776,14.76266 z m 53.07728,-46.67731 c -1.96267,0 -3.24267,1.28 -3.24267,3.24267 v 25.25865 c 0,7.08267 -6.4,12.45866 -14.84799,12.45866 -8.704,0 -15.27466,-5.03466 -15.27466,-15.53066 v -22.18665 c 0,-1.87734 -1.45067,-3.24267 -3.328,-3.24267 -1.792,0 -3.24267,1.36533 -3.24267,3.24267 v 22.18665 c 0,14.08 9.13067,21.75999 21.16266,21.75999 6.31466,0 11.86133,-2.55999 15.53066,-6.74133 v 2.90134 c 0,1.96266 1.28,3.32799 3.24267,3.32799 1.96266,0 3.32799,-1.36533 3.32799,-3.32799 v -40.10665 c 0,-1.96267 -1.36533,-3.24267 -3.32799,-3.24267 z m 39.25332,40.10665 h -2.304 c -5.29067,0 -9.13067,-4.096 -9.13067,-9.89866 v -22.78399 h 9.64267 c 1.792,0 2.98666,-1.19467 2.98666,-2.816 0,-1.70667 -1.19466,-2.90133 -2.98666,-2.90133 h -9.64267 v -13.22666 c 0,-1.96267 -1.36533,-3.328 -3.328,-3.328 -1.87733,0 -3.24266,1.36533 -3.24266,3.328 v 13.22666 h -5.54667 c -1.79199,0 -2.98666,1.19466 -2.98666,2.90133 0,1.62133 1.19467,2.816 2.98666,2.816 h 5.54667 v 22.78399 c 0,9.47199 6.57066,16.38399 15.70133,16.46932 h 1.792 c 2.04799,0 3.58399,-1.36533 3.58399,-3.24266 0,-1.96267 -1.28,-3.328 -3.07199,-3.328 z m 18.34668,-48.98131 c 2.64534,0 4.69334,-2.048 4.69334,-4.69333 0,-2.816 -2.21867,-4.608 -4.608,-4.608 -2.47467,0 -4.69333,1.792 -4.69333,4.608 0,2.64533 2.048,4.69333 4.60799,4.69333 z m 0.0853,55.55197 c 1.87733,0 3.24266,-1.36533 3.24266,-3.32799 v -40.02132 c 0,-1.96267 -1.36533,-3.328 -3.24266,-3.328 -1.96267,0 -3.328,1.36533 -3.328,3.328 v 40.02132 c 0,1.96266 1.36533,3.32799 3.328,3.32799 z m 41.21594,0.42667 c 13.65333,0 23.72266,-10.06933 23.72266,-23.72266 -0.0853,-13.73866 -10.06933,-23.80799 -23.72266,-23.80799 -13.73866,0 -23.72265,10.06933 -23.72265,23.80799 0,13.65333 9.98399,23.72266 23.72265,23.72266 z m 0,-5.97333 c -9.89866,0 -17.32266,-7.50933 -17.32266,-17.74933 0,-10.32532 7.424,-17.83465 17.32266,-17.83465 9.984,0 17.23733,7.50933 17.23733,17.83465 0,10.24 -7.25333,17.74933 -17.23733,17.74933 z m 58.624,-41.64265 c -6.31467,0 -11.86133,2.56 -15.53066,6.74133 v -2.90133 c 0,-1.96267 -1.28,-3.328 -3.24267,-3.328 -1.96267,0 -3.328,1.36533 -3.328,3.328 v 40.10665 c 0,1.96267 1.36533,3.24266 3.328,3.24266 1.96267,0 3.24267,-1.27999 3.24267,-3.24266 v -25.25866 c 0,-7.08266 6.39999,-12.45866 14.84799,-12.45866 8.704,0 15.27466,5.03467 15.27466,15.53066 v 22.18666 c 0,1.87733 1.45067,3.24266 3.328,3.24266 1.792,0 3.24266,-1.36533 3.24266,-3.24266 v -22.18666 c 0,-14.07999 -9.13066,-21.75999 -21.16265,-21.75999 z m 34.9013,61.01331 c 3.92533,0 8.192,-8.448 8.10667,-14.93333 0,-4.77866 -2.304,-7.59466 -5.80267,-7.59466 -2.816,0 -4.94933,1.792 -4.94933,4.69333 0,3.84 4.01067,4.52266 4.01067,8.61866 0,3.41333 -3.15734,4.94933 -3.15734,7.50933 0,1.024 0.59734,1.70667 1.792,1.70667 z"
         id="text1"
         style="font-size:85.3333px;font-family:Comfortaa;-inkscape-font-specification:Comfortaa;white-space:pre;fill:#c9c9ff"
         transform="matrix(1.3826055,0,0,1.3826055,-343.4933,-188.40481)"
         aria-label="Solution," /><path
         d="m 513.3418,439.61098 h 36.69332 c 1.87733,0 3.32799,-1.36533 3.32799,-3.15733 0,-1.87734 -1.45066,-3.15734 -3.32799,-3.15734 H 516.6698 v -57.00264 c 0,-1.87733 -1.45067,-3.328 -3.328,-3.328 -1.792,0 -3.328,1.45067 -3.328,3.328 v 59.98931 c 0,1.87733 1.45066,3.328 3.328,3.328 z m 54.01592,0 h 36.69332 c 1.87733,0 3.328,-1.36533 3.328,-3.15733 0,-1.87734 -1.45067,-3.15734 -3.328,-3.15734 h -33.36532 v -57.00264 c 0,-1.87733 -1.45066,-3.328 -3.328,-3.328 -1.792,0 -3.328,1.45067 -3.328,3.328 v 59.98931 c 0,1.87733 1.45067,3.328 3.328,3.328 z m 74.66661,0.85333 c 7.76533,0 15.104,-2.048 20.90666,-7.33866 0.68267,-0.768 0.93867,-1.536 0.93867,-2.38933 0,-2.73067 -2.98667,-4.18134 -5.03467,-2.56 -4.94933,3.92533 -10.49599,5.97333 -16.81066,5.97333 -14.76266,0 -26.70932,-12.544 -26.70932,-27.90399 0,-15.01866 12.11733,-27.81866 26.70932,-27.81866 6.912,0 11.94667,1.792 16.384,5.71733 1.70666,1.36534 3.75466,0.85334 4.18133,-0.51199 1.45066,-0.59734 1.87733,-2.816 0.34133,-4.01067 -6.22933,-5.20533 -12.71466,-7.50933 -20.90666,-7.50933 -18.60265,0 -33.19465,15.44533 -33.19465,34.13332 0,18.85866 14.84799,34.21865 33.19465,34.21865 z"
         id="text7"
         style="font-size:85.3333px;font-family:Comfortaa;-inkscape-font-specification:Comfortaa;white-space:pre;fill:#f5a9b8;stroke-width:1.801"
         transform="matrix(1.6454627,0,0,1.6454627,-367.50535,-275.00536)"
         aria-label="LLC" /></g></g></svg>
