<?xml version="1.0" encoding="UTF-8" standalone="no"?>
<!-- Created with Inkscape (http://www.inkscape.org/) -->

<svg
   width="1500"
   height="500"
   viewBox="0 0 1500 500"
   version="1.1"
   id="svg1"
   xml:space="preserve"
   inkscape:version="1.3 (0e150ed6c4, 2023-07-21)"
   sodipodi:docname="hairpin_banner_path.svg"
   inkscape:export-filename="hairpin_banner.png"
   inkscape:export-xdpi="96"
   inkscape:export-ydpi="96"
   xmlns:inkscape="http://www.inkscape.org/namespaces/inkscape"
   xmlns:sodipodi="http://sodipodi.sourceforge.net/DTD/sodipodi-0.dtd"
   xmlns="http://www.w3.org/2000/svg"
   xmlns:svg="http://www.w3.org/2000/svg"><sodipodi:namedview
     id="namedview1"
     pagecolor="#ffffff"
     bordercolor="#000000"
     borderopacity="0.25"
     inkscape:showpageshadow="2"
     inkscape:pageopacity="0.0"
     inkscape:pagecheckerboard="0"
     inkscape:deskcolor="#d1d1d1"
     inkscape:document-units="px"
     inkscape:zoom="0.48271823"
     inkscape:cx="596.62135"
     inkscape:cy="208.19599"
     inkscape:window-width="1920"
     inkscape:window-height="1006"
     inkscape:window-x="0"
     inkscape:window-y="0"
     inkscape:window-maximized="1"
     inkscape:current-layer="layer1"
     inkscape:export-bgcolor="#ffffffff" /><defs
     id="defs1"><rect
       x="1249.5289"
       y="58.261871"
       width="229.28238"
       height="153.10478"
       id="rect6" /><rect
       x="519.45417"
       y="239.22551"
       width="868.81545"
       height="153.94436"
       id="rect5" /><rect
       x="461.66781"
       y="135.29341"
       width="964.08791"
       height="306.10346"
       id="rect3" /><rect
       x="609.82704"
       y="110.76736"
       width="985.50224"
       height="327.03209"
       id="rect2" /><rect
       x="597.00394"
       y="78.054428"
       width="702.43835"
       height="142.95387"
       id="rect1" /><inkscape:path-effect
       effect="copy_rotate"
       starting_point="477.65871,122.02815"
       origin="400.6874,122.02815"
       id="path-effect2"
       is_visible="true"
       lpeversion="1.2"
       lpesatellites=""
       method="normal"
       num_copies="6"
       starting_angle="0"
       rotation_angle="60"
       gap="-0.01"
       copies_to_360="true"
       mirror_copies="false"
       split_items="false"
       link_styles="false" /><inkscape:path-effect
       effect="bspline"
       id="path-effect1"
       is_visible="true"
       lpeversion="1.3"
       weight="33.333333"
       steps="2"
       helper_size="0"
       apply_no_weight="true"
       apply_with_weight="true"
       only_selected="false"
       uniform="false" /><inkscape:path-effect
       effect="copy_rotate"
       starting_point="108.16864,74.215701"
       origin="74.716454,74.215701"
       id="path-effect4"
       is_visible="true"
       lpeversion="1.2"
       lpesatellites=""
       method="normal"
       num_copies="6"
       starting_angle="0"
       rotation_angle="60"
       gap="-0.01"
       copies_to_360="true"
       mirror_copies="false"
       split_items="true"
       link_styles="false" /><inkscape:path-effect
       effect="bspline"
       id="path-effect3"
       is_visible="true"
       lpeversion="1.3"
       weight="33.333333"
       steps="2"
       helper_size="0"
       apply_no_weight="true"
       apply_with_weight="true"
       only_selected="false"
       uniform="false" /></defs><g
     inkscape:label="Layer 1"
     inkscape:groupmode="layer"
     id="layer1"><g
       id="g2"><g
         id="g1"
         transform="translate(29.974131,-17.04407)"><g
           inkscape:label="Layer 1"
           id="layer1-5"
           transform="matrix(0.65752308,0,0,0.65752308,55.321288,37.763112)"><path
             style="fill:#c9c9ff;fill-opacity:1"
             d="m 217.15282,93.005362 c -4.35255,4.352546 -8.7051,8.705098 -10.21581,14.466108 -1.51071,5.76102 -0.17964,12.93023 1.15146,20.09958 29.20007,10.30769 58.39956,20.61518 83.75351,33.55824 25.35394,12.94306 46.86033,28.52067 68.36714,44.09859 C 321.83529,143.25981 283.46224,81.292989 259.61904,62.588859 c -23.8432,-18.70413 -33.15461,5.855937 -42.46622,30.416503 z m 66.63282,173.456998 c 1.59314,5.9457 3.18628,11.89139 7.42011,16.08021 4.23383,4.18883 11.10809,6.62069 17.98248,9.0526 23.52675,-20.13416 47.05304,-40.26792 70.93904,-55.75355 23.88599,-15.48563 48.12979,-26.3219 72.37407,-37.15839 -72.85284,2.24868 -145.7042,4.4973 -173.82405,15.79405 -28.11986,11.29676 -11.50592,31.64071 5.10835,51.98508 z m 183.53458,29.02279 c 5.94569,1.59315 11.89138,3.1863 17.63593,1.6141 5.74454,-1.57219 11.28772,-6.30954 16.83101,-11.04698 -5.67332,-30.44185 -11.34652,-60.8831 -12.81447,-89.31179 -1.46795,-28.42869 1.26946,-54.84257 4.00693,-81.25698 -34.47901,64.21675 -68.95733,128.43219 -73.23398,158.43308 -4.27665,30.00088 21.6487,25.78477 47.57458,21.56857 z M 584.22198,151.05094 c 4.35255,-4.35255 8.7051,-8.7051 10.21581,-14.46611 1.51071,-5.76102 0.17964,-12.93023 -1.15146,-20.09958 C 564.08626,106.17756 534.88677,95.870074 509.53282,82.927012 484.17888,69.983951 462.67249,54.40634 441.16568,38.82842 c 38.37383,61.96807 76.74688,123.93489 100.59008,142.63902 23.8432,18.70413 33.15461,-5.85594 42.46622,-30.4165 z M 517.58916,-22.406065 c -1.59314,-5.945692 -3.18628,-11.891388 -7.42011,-16.08021 -4.23383,-4.188822 -11.10809,-6.620683 -17.98248,-9.052591 C 468.65982,-27.404709 445.13353,-7.2709502 421.24753,8.2146789 397.36154,23.700308 373.11774,34.53658 348.87346,45.373066 421.7263,43.124394 494.57766,40.875767 522.69751,29.579015 550.81737,18.282264 534.20343,-2.0616937 517.58916,-22.406065 Z M 334.05458,-51.428853 c -5.94569,-1.593146 -11.89138,-3.186293 -17.63593,-1.614098 -5.74454,1.572195 -11.28772,6.309543 -16.83101,11.046985 5.67332,30.441847 11.34652,60.883092 12.81447,89.311782 1.46795,28.428691 -1.26946,54.842574 -4.00693,81.256984 34.47901,-64.216749 68.95733,-128.43219432 73.23398,-158.433076 4.27665,-30.000882 -21.6487,-25.784772 -47.57458,-21.568577 z"
             id="path1"
             transform="matrix(1.3193312,0,0,1.3193312,-272.63939,95.004454)"
             sodipodi:nodetypes="ccccccc" /><g
             id="g8"
             transform="matrix(1.3060569,0.61245313,-0.61245313,1.3060569,252.71036,146.54082)"><path
               style="fill:#f5a9b8;fill-opacity:1;stroke-width:0.264583"
               d="m 74.716454,69.83256 c 10.412979,-5.162672 20.82596,-10.325346 31.976806,-8.471384 11.15085,1.853962 23.03909,10.7242 34.92757,19.594616 -7.48412,3.940917 -14.96824,7.881833 -26.11912,6.027884 C 104.35083,85.129726 89.533793,77.481221 74.716454,69.83256 Z"
               id="path3"
               transform="translate(-40.435309,-6.4823672)" /><path
               transform="rotate(-60,48.884905,105.99252)"
               style="fill:#f5a9b8;fill-opacity:1;stroke-width:0.264583"
               id="path4"
               d="m 74.716454,69.83256 c 10.412979,-5.162672 20.82596,-10.325346 31.976806,-8.471384 11.15085,1.853962 23.03909,10.7242 34.92757,19.594616 -7.48412,3.940917 -14.96824,7.881833 -26.11912,6.027884 C 104.35083,85.129726 89.533793,77.481221 74.716454,69.83256 Z" /><path
               transform="rotate(-120,52.627501,82.647186)"
               style="fill:#f5a9b8;fill-opacity:1;stroke-width:0.264583"
               id="path5"
               d="m 74.716454,69.83256 c 10.412979,-5.162672 20.82596,-10.325346 31.976806,-8.471384 11.15085,1.853962 23.03909,10.7242 34.92757,19.594616 -7.48412,3.940917 -14.96824,7.881833 -26.11912,6.027884 C 104.35083,85.129726 89.533793,77.481221 74.716454,69.83256 Z"
               sodipodi:nodetypes="cscsc" /><path
               transform="rotate(180,54.4988,70.974517)"
               style="fill:#f5a9b8;fill-opacity:1;stroke-width:0.264583"
               id="path6"
               d="m 74.716454,69.83256 c 10.412979,-5.162672 20.82596,-10.325346 31.976806,-8.471384 11.15085,1.853962 23.03909,10.7242 34.92757,19.594616 -7.48412,3.940917 -14.96824,7.881833 -26.11912,6.027884 C 104.35083,85.129726 89.533793,77.481221 74.716454,69.83256 Z" /><path
               transform="rotate(120,56.370098,59.301849)"
               style="fill:#f5a9b8;fill-opacity:1;stroke-width:0.264583"
               id="path7"
               d="m 74.716454,69.83256 c 10.412979,-5.162672 20.82596,-10.325346 31.976806,-8.471384 11.15085,1.853962 23.03909,10.7242 34.92757,19.594616 -7.48412,3.940917 -14.96824,7.881833 -26.11912,6.027884 C 104.35083,85.129726 89.533793,77.481221 74.716454,69.83256 Z" /><path
               transform="rotate(60,60.112694,35.956513)"
               style="fill:#f5a9b8;fill-opacity:1;stroke-width:0.264583"
               id="path8"
               d="m 74.716454,69.83256 c 10.412979,-5.162672 20.82596,-10.325346 31.976806,-8.471384 11.15085,1.853962 23.03909,10.7242 34.92757,19.594616 -7.48412,3.940917 -14.96824,7.881833 -26.11912,6.027884 C 104.35083,85.129726 89.533793,77.481221 74.716454,69.83256 Z" /></g></g><g
           id="g5"
           transform="matrix(1.3870922,0,0,1.3870922,-223.299,43.682146)"><path
             d="m 495.80857,182.54889 h -4.42708 v -17.91666 h -20.05207 v 17.91666 h -4.42708 V 144.476 h 4.42708 v 16.1979 h 20.05207 V 144.476 h 4.42708 z m 27.34374,0 -0.85938,-4.0625 h -0.20833 q -2.13542,2.68229 -4.27083,3.64583 -2.10938,0.9375 -5.28646,0.9375 -4.24479,0 -6.66666,-2.1875 -2.39583,-2.18749 -2.39583,-6.22395 0,-8.64583 13.82811,-9.06249 l 4.84375,-0.15625 v -1.77084 q 0,-3.35937 -1.45833,-4.94791 -1.43229,-1.61458 -4.60937,-1.61458 -3.56771,0 -8.07291,2.1875 l -1.32813,-3.30729 q 2.10937,-1.14584 4.60937,-1.79688 2.52604,-0.65104 5.05208,-0.65104 5.10417,0 7.55208,2.26562 2.47396,2.26563 2.47396,7.26563 v 19.47915 z m -9.76562,-3.04687 q 4.03645,0 6.32812,-2.21354 2.31771,-2.21354 2.31771,-6.19792 v -2.57812 l -4.32292,0.18229 q -5.15625,0.18229 -7.44791,1.61458 -2.26562,1.40625 -2.26562,4.40104 0,2.34375 1.40624,3.56771 1.4323,1.22396 3.98438,1.22396 z m 26.1979,3.04687 h -4.32291 v -28.54165 h 4.32291 z m -4.6875,-36.27602 q 0,-1.48437 0.72917,-2.16146 0.72916,-0.70312 1.82291,-0.70312 1.04167,0 1.79688,0.70312 0.75521,0.70313 0.75521,2.16146 0,1.45833 -0.75521,2.1875 -0.75521,0.70312 -1.79688,0.70312 -1.09375,0 -1.82291,-0.70312 -0.72917,-0.72917 -0.72917,-2.1875 z m 26.87498,7.21354 q 1.90104,0 3.41146,0.3125 l -0.59896,4.01041 q -1.77083,-0.39062 -3.125,-0.39062 -3.46354,0 -5.93749,2.8125 -2.44792,2.81249 -2.44792,7.0052 v 15.31249 h -4.32291 v -28.54165 h 3.5677 l 0.49479,5.28646 h 0.20834 q 1.58854,-2.78646 3.82812,-4.29688 2.23958,-1.51041 4.92187,-1.51041 z m 33.54165,2.08333 q 0,5.78125 -3.95833,8.90624 -3.93229,3.09896 -11.27604,3.09896 h -4.47916 v 14.97395 h -4.42708 V 144.476 h 9.86978 q 14.27083,0 14.27083,11.09374 z m -19.71353,8.20312 h 3.98437 q 5.88541,0 8.51562,-1.90104 2.63021,-1.90104 2.63021,-6.09375 0,-3.77604 -2.47396,-5.62499 -2.47396,-1.84896 -7.70833,-1.84896 h -4.94791 z m 31.35415,18.77603 h -4.32291 v -28.54165 h 4.32291 z m -4.6875,-36.27602 q 0,-1.48437 0.72917,-2.16146 0.72917,-0.70312 1.82292,-0.70312 1.04166,0 1.79687,0.70312 0.75521,0.70313 0.75521,2.16146 0,1.45833 -0.75521,2.1875 -0.75521,0.70312 -1.79687,0.70312 -1.09375,0 -1.82292,-0.70312 -0.72917,-0.72917 -0.72917,-2.1875 z m 33.3854,36.27602 v -18.46353 q 0,-3.48958 -1.58854,-5.20833 -1.58854,-1.71875 -4.97395,-1.71875 -4.47917,0 -6.5625,2.42187 -2.08333,2.42188 -2.08333,7.99479 v 14.97395 H 616.121 v -28.54165 h 3.51563 l 0.70312,3.90625 h 0.20834 q 1.32812,-2.10938 3.72395,-3.25521 2.39583,-1.17187 5.33854,-1.17187 5.15625,0 7.76041,2.5 2.60417,2.47395 2.60417,7.9427 v 18.61978 z"
             id="text3"
             style="font-size:53.3333px;font-family:'Open Sans';-inkscape-font-specification:'Open Sans';white-space:pre;fill:#c9c9ff"
             transform="matrix(3.1940727,0,0,3.1940727,-976.56849,-383.84456)"
             aria-label="HairPin" /><path
             id="rect4"
             style="fill:#c9c9ff;stroke-width:0.637451"
             transform="rotate(-45)"
             d="m 452.32462,570.88269 h 23.3571 v 23.35711 h -23.3571 z" /><path
             id="rect4-5"
             style="fill:#c9c9ff;stroke-width:0.637451"
             transform="rotate(-45)"
             d="m 602.42474,724.05756 h 23.35711 v 23.3571 h -23.35711 z" /><path
             d="m 1305.5079,70.47586 -10.496,18.602659 -10.6666,-18.602659 c -1.1094,-2.133332 -4.864,-1.279999 -4.864,0.938666 V 94.53985 c 0,1.28 1.024,2.218666 2.3893,2.218666 1.3653,0 2.4747,-1.024 2.4747,-2.218666 V 78.838523 l 8.3626,14.762661 c 0.9387,1.706666 3.4134,1.877332 4.2667,0.170666 l 8.6187,-15.27466 v 16.04266 c 0,1.28 1.024,2.218666 2.3893,2.218666 1.28,0 2.3893,-1.024 2.3893,-2.218666 V 71.414526 c 0,-2.303999 -3.84,-2.901332 -4.864,-0.938666 z m -32.1706,-1.194666 h -20.5653 c -1.28,0 -2.2187,0.853333 -2.2187,2.047999 0,1.194666 0.9387,2.047999 2.2187,2.047999 h 7.936 V 94.53985 c 0,1.28 1.024,2.218666 2.3893,2.218666 1.3653,0 2.3893,-0.938666 2.3893,-2.218666 V 73.377192 h 7.8507 c 1.28,0 2.304,-0.853333 2.304,-2.047999 0,-1.194666 -1.024,-2.047999 -2.304,-2.047999 z"
             id="text5"
             style="font-size:85.3333px;font-family:Comfortaa;-inkscape-font-specification:Comfortaa;white-space:pre;fill:#c9c9ff"
             transform="matrix(1.6415559,0,0,1.6415559,-991.52826,-72.580117)"
             aria-label="™" /></g><g
           id="text4"
           style="font-size:57.0141px;font-family:'Open Sans';-inkscape-font-specification:'Open Sans';white-space:pre;fill:#c9c9ff"
           transform="matrix(1.4967048,0,0,1.4967048,-623.8983,26.881122)"
           aria-label="The Integrated Cloud Platform&#10;"><path
             d="m 537.57821,289.7419 h -4.73261 v -36.49682 h -12.88942 v -4.20368 h 30.51145 v 4.20368 h -12.88942 z m 39.19719,0 v -19.73779 q 0,-3.73042 -1.69817,-5.56779 -1.69817,-1.83736 -5.31723,-1.83736 -4.81613,0 -7.04325,2.61685 -2.19927,2.61686 -2.19927,8.57439 v 15.9517 h -4.62126 v -43.31735 h 4.62126 v 13.11212 q 0,2.36631 -0.22271,3.92529 h 0.27839 q 1.3641,-2.19927 3.8696,-3.45202 2.53335,-1.28059 5.76266,-1.28059 5.59562,0 8.37951,2.67253 2.81173,2.6447 2.81173,8.43519 v 19.90483 z m 27.00375,0.55678 q -6.76486,0 -10.69014,-4.12016 -3.89745,-4.12016 -3.89745,-11.4418 0,-7.37731 3.61906,-11.72018 3.64689,-4.34287 9.77146,-4.34287 5.73481,0 9.07548,3.78609 3.34067,3.75825 3.34067,9.93849 v 2.92309 h -21.01838 q 0.1392,5.37291 2.70038,8.1568 2.58901,2.78389 7.26595,2.78389 4.92749,0 9.74362,-2.06008 v 4.12016 q -2.44982,1.05788 -4.6491,1.5033 -2.17143,0.47327 -5.26155,0.47327 z m -1.25275,-27.7554 q -3.67474,0 -5.87401,2.39414 -2.17144,2.39415 -2.56118,6.62567 h 15.95169 q 0,-4.37071 -1.94872,-6.68134 -1.94872,-2.33847 -5.56778,-2.33847 z"
             id="path2" /><path
             style="fill:#f5a9b8"
             d="m 638.38292,289.7419 v -40.7005 h 4.73262 v 40.7005 z m 36.07923,0 v -19.73779 q 0,-3.73042 -1.69817,-5.56779 -1.69817,-1.83736 -5.31723,-1.83736 -4.7883,0 -7.01541,2.58901 -2.22711,2.58902 -2.22711,8.54655 v 16.00738 h -4.62126 v -30.51145 h 3.75825 l 0.75165,4.17583 h 0.22271 q 1.41979,-2.25495 3.98097,-3.47986 2.56118,-1.25275 5.70698,-1.25275 5.5121,0 8.29599,2.67253 2.78389,2.6447 2.78389,8.49087 v 19.90483 z m 23.96931,-3.25716 q 1.22491,0 2.36631,-0.16703 1.14139,-0.19487 1.80953,-0.38974 v 3.53554 q -0.75165,0.3619 -2.22712,0.58462 -1.44762,0.25055 -2.61685,0.25055 -8.85278,0 -8.85278,-9.32604 v -18.15097 h -4.37071 v -2.22712 l 4.37071,-1.92088 1.94872,-6.51431 h 2.67254 v 7.07109 h 8.85278 v 3.59122 h -8.85278 v 17.9561 q 0,2.75605 1.30843,4.23151 1.30843,1.47546 3.59122,1.47546 z m 23.16197,3.81394 q -6.76485,0 -10.69014,-4.12016 -3.89745,-4.12016 -3.89745,-11.4418 0,-7.37731 3.61906,-11.72018 3.6469,-4.34287 9.77146,-4.34287 5.73482,0 9.07549,3.78609 3.34067,3.75825 3.34067,9.93849 v 2.92309 h -21.01838 q 0.13919,5.37291 2.70037,8.1568 2.58902,2.78389 7.26596,2.78389 4.92749,0 9.74362,-2.06008 v 4.12016 q -2.44983,1.05788 -4.6491,1.5033 -2.17144,0.47327 -5.26156,0.47327 z m -1.25275,-27.7554 q -3.67473,0 -5.87401,2.39414 -2.17143,2.39415 -2.56118,6.62567 h 15.9517 q 0,-4.37071 -1.94872,-6.68134 -1.94873,-2.33847 -5.56779,-2.33847 z m 45.32177,-3.31283 v 2.92308 l -5.6513,0.66814 q 0.77949,0.97436 1.39194,2.56118 0.61246,1.55898 0.61246,3.53554 0,4.48206 -3.06228,7.1546 -3.06228,2.67254 -8.40735,2.67254 -1.36411,0 -2.56118,-0.22272 -2.95093,1.55898 -2.95093,3.92529 0,1.25275 1.03004,1.86521 1.03004,0.58462 3.53554,0.58462 h 5.40075 q 4.95533,0 7.60003,2.08792 2.67253,2.08791 2.67253,6.06888 0,5.06668 -4.06448,7.71138 -4.06448,2.67253 -11.85938,2.67253 -5.98536,0 -9.24252,-2.22711 -3.22931,-2.22711 -3.22931,-6.29159 0,-2.7839 1.78169,-4.81614 1.78169,-2.03224 5.011,-2.75605 -1.16923,-0.52894 -1.97656,-1.64249 -0.77949,-1.11356 -0.77949,-2.58902 0,-1.67034 0.89085,-2.92309 0.89084,-1.25275 2.81173,-2.42199 -2.36631,-0.97436 -3.86961,-3.31283 -1.47547,-2.33847 -1.47547,-5.34507 0,-5.011 3.00661,-7.71138 3.0066,-2.72821 8.51871,-2.72821 2.39414,0 4.31503,0.55678 z m -24.33122,35.63381 q 0,2.47766 2.08792,3.75825 2.08792,1.28059 5.98537,1.28059 5.81833,0 8.60222,-1.75385 2.81174,-1.72601 2.81174,-4.70478 0,-2.47766 -1.53114,-3.45202 -1.53115,-0.94652 -5.76266,-0.94652 h -5.53994 q -3.1458,0 -4.89965,1.5033 -1.75386,1.5033 -1.75386,4.31503 z m 2.50551,-25.86235 q 0,3.20147 1.80953,4.84397 1.80953,1.64249 5.03884,1.64249 6.76486,0 6.76486,-6.56998 0,-6.87621 -6.84838,-6.87621 -3.25715,0 -5.011,1.75385 -1.75385,1.75385 -1.75385,5.20588 z m 42.00892,-10.32824 q 2.03224,0 3.6469,0.33407 l -0.6403,4.28719 q -1.89305,-0.41759 -3.34067,-0.41759 -3.70258,0 -6.34727,3.00661 -2.61686,3.0066 -2.61686,7.48867 v 16.36928 h -4.62126 v -30.51145 h 3.81393 l 0.52894,5.6513 h 0.22271 q 1.69818,-2.97877 4.09232,-4.59342 2.39415,-1.61466 5.26156,-1.61466 z m 26.9759,31.06823 -0.91869,-4.34287 h -0.22271 q -2.28279,2.86741 -4.56558,3.89745 -2.25495,1.0022 -5.6513,1.0022 -4.53774,0 -7.12676,-2.33847 -2.56118,-2.33847 -2.56118,-6.6535 0,-9.24252 14.78246,-9.68795 l 5.17804,-0.16703 v -1.89305 q 0,-3.59122 -1.55898,-5.28939 -1.53114,-1.72601 -4.92749,-1.72601 -3.81393,0 -8.63006,2.33847 l -1.41979,-3.53555 q 2.25495,-1.22491 4.92749,-1.92088 2.70038,-0.69597 5.40075,-0.69597 5.45643,0 8.07329,2.42198 2.64469,2.42199 2.64469,7.76706 v 20.82351 z m -10.4396,-3.25716 q 4.31503,0 6.76486,-2.3663 2.47766,-2.36631 2.47766,-6.62566 v -2.75606 l -4.62126,0.19487 q -5.5121,0.19488 -7.96193,1.72602 -2.42198,1.5033 -2.42198,4.70477 0,2.50551 1.5033,3.81394 1.53114,1.30842 4.25935,1.30842 z m 33.23967,0 q 1.22491,0 2.36631,-0.16703 1.14139,-0.19487 1.80953,-0.38974 v 3.53554 q -0.75165,0.3619 -2.22712,0.58462 -1.44762,0.25055 -2.61685,0.25055 -8.85278,0 -8.85278,-9.32604 v -18.15097 h -4.37071 v -2.22712 l 4.37071,-1.92088 1.94872,-6.51431 h 2.67254 v 7.07109 h 8.85278 v 3.59122 h -8.85278 v 17.9561 q 0,2.75605 1.30843,4.23151 1.30843,1.47546 3.59122,1.47546 z m 23.16197,3.81394 q -6.76485,0 -10.69014,-4.12016 -3.89745,-4.12016 -3.89745,-11.4418 0,-7.37731 3.61906,-11.72018 3.6469,-4.34287 9.77146,-4.34287 5.73482,0 9.07549,3.78609 3.34067,3.75825 3.34067,9.93849 v 2.92309 h -21.01838 q 0.13919,5.37291 2.70037,8.1568 2.58902,2.78389 7.26596,2.78389 4.92749,0 9.74362,-2.06008 v 4.12016 q -2.44983,1.05788 -4.6491,1.5033 -2.17144,0.47327 -5.26156,0.47327 z m -1.25275,-27.7554 q -3.67473,0 -5.87401,2.39414 -2.17143,2.39415 -2.56118,6.62567 h 15.9517 q 0,-4.37071 -1.94872,-6.68134 -1.94873,-2.33847 -5.56779,-2.33847 z m 41.11811,23.1063 h -0.25055 q -3.20148,4.6491 -9.57659,4.6491 -5.98537,0 -9.32604,-4.09232 -3.31283,-4.09232 -3.31283,-11.63667 0,-7.54435 3.34067,-11.72018 3.34067,-4.17584 9.2982,-4.17584 6.20808,0 9.52091,4.5099 h 0.3619 l -0.19487,-2.19927 -0.11135,-2.1436 v -12.41615 h 4.62126 v 43.31735 h -3.75826 z m -9.24252,0.77949 q 4.73261,0 6.84837,-2.56118 2.1436,-2.58902 2.1436,-8.32384 v -0.97436 q 0,-6.48647 -2.17144,-9.24252 -2.1436,-2.78389 -6.87621,-2.78389 -4.06448,0 -6.23592,3.17363 -2.1436,3.1458 -2.1436,8.90846 0,5.84617 2.1436,8.82493 2.1436,2.97877 6.2916,2.97877 z"
             id="path9" /><path
             d="m 945.7524,252.6883 q -6.70918,0 -10.60663,4.48207 -3.86961,4.45422 -3.86961,12.22128 0,7.98977 3.73042,12.36048 3.75825,4.34287 10.69014,4.34287 4.25935,0 9.71578,-1.53114 v 4.148 q -4.23151,1.58682 -10.43959,1.58682 -8.99197,0 -13.89162,-5.45643 -4.87181,-5.45643 -4.87181,-15.50628 0,-6.29159 2.33847,-11.02421 2.36631,-4.73261 6.79269,-7.29379 4.45423,-2.56118 10.46744,-2.56118 6.40295,0 11.19124,2.33846 l -2.0044,4.06449 q -4.62126,-2.17144 -9.24252,-2.17144 z m 22.46599,37.0536 h -4.62126 v -43.31735 h 4.62126 z m 36.13491,-15.28357 q 0,7.46083 -3.7582,11.66451 -3.7583,4.17584 -10.38396,4.17584 -4.09232,0 -7.26596,-1.92089 -3.17364,-1.92088 -4.89965,-5.5121 -1.72601,-3.59122 -1.72601,-8.40736 0,-7.46083 3.73041,-11.60882 3.73042,-4.17584 10.35608,-4.17584 6.40295,0 10.16119,4.25935 3.7861,4.25936 3.7861,11.52531 z m -23.24549,0 q 0,5.84618 2.33847,8.90846 2.33847,3.06228 6.87621,3.06228 4.53775,0 6.87621,-3.03444 2.36631,-3.06229 2.36631,-8.9363 0,-5.81833 -2.36631,-8.82493 -2.33846,-3.03444 -6.93189,-3.03444 -4.53774,0 -6.84837,2.97876 -2.31063,2.97876 -2.31063,8.88061 z m 35.68949,-15.22788 v 19.79347 q 0,3.73041 1.6982,5.56778 1.6981,1.83737 5.3172,1.83737 4.7883,0 6.9876,-2.61686 2.2271,-2.61686 2.2271,-8.54655 v -16.03521 h 4.6212 v 30.51145 h -3.8139 l -0.6681,-4.09232 h -0.2506 q -1.4198,2.25495 -3.9531,3.45202 -2.5055,1.19708 -5.7348,1.19708 -5.5678,0 -8.3517,-2.6447 -2.756,-2.6447 -2.756,-8.46303 v -19.9605 z m 51.4185,26.41913 h -0.2506 q -3.2015,4.6491 -9.5766,4.6491 -5.9853,0 -9.326,-4.09232 -3.3128,-4.09232 -3.3128,-11.63667 0,-7.54435 3.3406,-11.72018 3.3407,-4.17584 9.2982,-4.17584 6.2081,0 9.5209,4.5099 h 0.3619 l -0.1948,-2.19927 -0.1114,-2.1436 v -12.41615 h 4.6213 v 43.31735 h -3.7583 z m -9.2426,0.77949 q 4.7327,0 6.8484,-2.56118 2.1436,-2.58902 2.1436,-8.32384 v -0.97436 q 0,-6.48647 -2.1714,-9.24252 -2.1436,-2.78389 -6.8762,-2.78389 -4.0645,0 -6.236,3.17363 -2.1436,3.1458 -2.1436,8.90846 0,5.84617 2.1436,8.82493 2.1436,2.97877 6.2916,2.97877 z m 64.7255,-25.52829 q 0,6.18024 -4.2315,9.52091 -4.2036,3.31283 -12.0542,3.31283 h -4.7883 v 16.00738 h -4.7326 v -40.7005 h 10.5509 q 15.2557,0 15.2557,11.85938 z m -21.074,8.76926 h 4.2593 q 6.2916,0 9.1034,-2.03224 2.8117,-2.03224 2.8117,-6.51431 0,-4.03664 -2.6447,-6.0132 -2.6447,-1.97657 -8.2403,-1.97657 h -5.2894 z m 33.518,20.07186 h -4.6212 v -43.31735 h 4.6212 z m 28.5627,0 -0.9186,-4.34287 h -0.2228 q -2.2827,2.86741 -4.5655,3.89745 -2.255,1.0022 -5.6513,1.0022 -4.5378,0 -7.1268,-2.33847 -2.5612,-2.33847 -2.5612,-6.6535 0,-9.24252 14.7825,-9.68795 l 5.178,-0.16703 v -1.89305 q 0,-3.59122 -1.559,-5.28939 -1.5311,-1.72601 -4.9274,-1.72601 -3.814,0 -8.6301,2.33847 l -1.4198,-3.53555 q 2.255,-1.22491 4.9275,-1.92088 2.7004,-0.69597 5.4007,-0.69597 5.4565,0 8.0733,2.42198 2.6447,2.42199 2.6447,7.76706 v 20.82351 z m -10.4396,-3.25716 q 4.3151,0 6.7649,-2.3663 2.4777,-2.36631 2.4777,-6.62566 v -2.75606 l -4.6213,0.19487 q -5.5121,0.19488 -7.9619,1.72602 -2.422,1.5033 -2.422,4.70477 0,2.50551 1.5033,3.81394 1.5311,1.30842 4.2593,1.30842 z m 33.2397,0 q 1.225,0 2.3663,-0.16703 1.1414,-0.19487 1.8096,-0.38974 v 3.53554 q -0.7517,0.3619 -2.2271,0.58462 -1.4477,0.25055 -2.6169,0.25055 -8.8528,0 -8.8528,-9.32604 v -18.15097 h -4.3707 v -2.22712 l 4.3707,-1.92088 1.9488,-6.51431 h 2.6725 v 7.07109 h 8.8528 v 3.59122 h -8.8528 v 17.9561 q 0,2.75605 1.3084,4.23151 1.3084,1.47546 3.5912,1.47546 z m 24.025,-23.66307 h -7.7671 v 26.92023 h -4.6212 v -26.92023 h -5.4565 v -2.08792 l 5.4565,-1.67034 v -1.69817 q 0,-11.24692 9.8271,-11.24692 2.422,0 5.6791,0.97436 l -1.197,3.70257 q -2.6726,-0.863 -4.5656,-0.863 -2.6169,0 -3.8696,1.75385 -1.2528,1.72601 -1.2528,5.56778 v 1.97657 h 7.7671 z m 31.9034,11.63666 q 0,7.46083 -3.7582,11.66451 -3.7583,4.17584 -10.3839,4.17584 -4.0924,0 -7.266,-1.92089 -3.1736,-1.92088 -4.8996,-5.5121 -1.7261,-3.59122 -1.7261,-8.40736 0,-7.46083 3.7305,-11.60882 3.7304,-4.17584 10.356,-4.17584 6.403,0 10.1612,4.25935 3.7861,4.25936 3.7861,11.52531 z m -23.2455,0 q 0,5.84618 2.3385,8.90846 2.3385,3.06228 6.8762,3.06228 4.5378,0 6.8762,-3.03444 2.3663,-3.06229 2.3663,-8.9363 0,-5.81833 -2.3663,-8.82493 -2.3384,-3.03444 -6.9319,-3.03444 -4.5377,0 -6.8483,2.97876 -2.3107,2.97876 -2.3107,8.88061 z m 45.2661,-15.78466 q 2.0322,0 3.6469,0.33407 l -0.6403,4.28719 q -1.8931,-0.41759 -3.3407,-0.41759 -3.7026,0 -6.3473,3.00661 -2.6168,3.0066 -2.6168,7.48867 v 16.36928 h -4.6213 v -30.51145 h 3.814 l 0.5289,5.6513 h 0.2227 q 1.6982,-2.97877 4.0923,-4.59342 2.3942,-1.61466 5.2616,-1.61466 z m 48.2448,31.06823 v -19.84915 q 0,-3.6469 -1.559,-5.45643 -1.559,-1.83736 -4.8439,-1.83736 -4.3151,0 -6.3752,2.47766 -2.06,2.47766 -2.06,7.62786 v 17.03742 h -4.6213 v -19.84915 q 0,-3.6469 -1.559,-5.45643 -1.559,-1.83736 -4.8718,-1.83736 -4.3429,0 -6.3751,2.61685 -2.0044,2.58902 -2.0044,8.51871 v 16.00738 h -4.6213 v -30.51145 h 3.7583 l 0.7516,4.17583 h 0.2228 q 1.3084,-2.22711 3.6747,-3.47986 2.3941,-1.25275 5.3451,-1.25275 7.1546,0 9.3538,5.17804 h 0.2228 q 1.3641,-2.39415 3.9531,-3.7861 2.589,-1.39194 5.9018,-1.39194 5.1781,0 7.7392,2.67253 2.5891,2.6447 2.5891,8.49087 v 19.90483 z"
             id="path10" /></g></g></g></g></svg>
